HIERARCHY
ROOT Hips
{
  OFFSET 13.6774 106.653 -34.4427
  CHANNELS 6 Xposition Yposition Zposition Zrotation Xrotation Yrotation
  JOINT ToSpine
  {
    OFFSET -2.69724 7.43032 -0.144315
    CHANNELS 3 Zrotation Xrotation Yrotation
    JOINT Spine
    {
      OFFSET -0.0310711 10.7595 1.96963
      CHANNELS 3 Zrotation Xrotation Yrotation
      JOINT Spine1
      {
        OFFSET 19.9056 3.91189 0.764692
        CHANNELS 3 Zrotation Xrotation Yrotation
        JOINT Neck
        {
          OFFSET 25.9749 7.03908 -0.130764
          CHANNELS 3 Zrotation Xrotation Yrotation
          JOINT Head
          {
            OFFSET 9.52751 0.295786 -0.907742
            CHANNELS 3 Zrotation Xrotation Yrotation
            End Site
            {
              OFFSET 16.4037 0.713936 2.7358
            }
          }
        }
        JOINT LeftShoulder
        {
          OFFSET 17.7449 4.33886 11.7777
          CHANNELS 3 Zrotation Xrotation Yrotation
          JOINT LeftArm
          {
            OFFSET 0.911315 1.27913 9.80584
            CHANNELS 3 Zrotation Xrotation Yrotation
            JOINT LeftForeArm
            {
              OFFSET 28.6126 1.18197 -3.53199
              CHANNELS 3 Zrotation Xrotation Yrotation
              JOINT LeftHand
              {
                OFFSET 27.5088 0.0218783 0.327423
                CHANNELS 3 Zrotation Xrotation Yrotation
                End Site
                {
                  OFFSET 18.6038 -0.000155887 0.382096
                }
              }
            }
          }
        }
        JOINT RightShoulder
        {
          OFFSET 17.1009 2.89543 -12.2328
          CHANNELS 3 Zrotation Xrotation Yrotation
          JOINT RightArm
          {
            OFFSET 1.4228 0.178766 -10.211
            CHANNELS 3 Zrotation Xrotation Yrotation
            JOINT RightForeArm
            {
              OFFSET 28.733 1.87905 2.64907
              CHANNELS 3 Zrotation Xrotation Yrotation
              JOINT RightHand
              {
                OFFSET 27.4588 0.290562 -0.101845
                CHANNELS 3 Zrotation Xrotation Yrotation
                End Site
                {
                  OFFSET 17.8396 -0.255518 -0.000602873
                }
              }
            }
          }
        }
      }
    }
  }
  JOINT LeftUpLeg
  {
    OFFSET -5.61296 -2.22332 -10.2353
    CHANNELS 3 Zrotation Xrotation Yrotation
    JOINT LeftLeg
    {
      OFFSET 2.56703 -44.7417 -7.93097
      CHANNELS 3 Zrotation Xrotation Yrotation
      JOINT LeftFoot
      {
        OFFSET 3.16933 -46.5642 -3.96578
        CHANNELS 3 Zrotation Xrotation Yrotation
        JOINT LeftToeBase
        {
          OFFSET 0.346054 -6.02161 12.8035
          CHANNELS 3 Zrotation Xrotation Yrotation
          End Site
          {
            OFFSET 0.134235 -1.35082 5.13018
          }
        }
      }
    }
  }
  JOINT RightUpLeg
  {
    OFFSET -5.7928 -1.72406 10.6446
    CHANNELS 3 Zrotation Xrotation Yrotation
    JOINT RightLeg
    {
      OFFSET -2.57161 -44.7178 -7.85259
      CHANNELS 3 Zrotation Xrotation Yrotation
      JOINT RightFoot
      {
        OFFSET -3.10148 -46.5936 -4.03391
        CHANNELS 3 Zrotation Xrotation Yrotation
        JOINT RightToeBase
        {
          OFFSET -0.0828122 -6.13587 12.8035
          CHANNELS 3 Zrotation Xrotation Yrotation
          End Site
          {
            OFFSET -0.131328 -1.35082 5.13018
          }
        }
      }
    }
  }
}
MOTION
Frames: 19
Frame Time: 0.03333333333333333
0.0000 93.1000 0.0000 63.6881 -2.1086 -15.0736 -71.0014 -0.5123 88.0010 119.0241 64.2164 -25.4836 -11.9919 16.8408 1.1696 -148.1786 33.1016 156.9669 -132.2472 71.2272 165.7847 -0.9564 -25.0858 -33.9115 -67.0160 20.1481 -139.8082 26.7758 -1.7335 -92.1955 0.2166 -0.6203 -0.4213 0.7427 4.9350 6.9344 -134.1459 -0.0052 102.1349 -3.3254 1.0284 59.9865 -0.1752 0.4595 0.8126 -52.8958 7.6280 104.2071 -1.5769 31.4303 -2.5157 -8.4773 -8.3861 -1.1246 6.4688 -14.9462 7.3604 -14.8349 -2.9784 115.6857 0.7785 49.8909 -9.0040 4.3745 -2.3697 0.2610 2.1134 -0.3996 -10.1773 
0.0000 93.1000 0.0000 64.0684 4.8126 -10.1606 -71.0061 -0.3460 87.9985 113.9395 64.1589 -21.7871 -10.8652 17.1240 -0.5375 -143.1391 35.5329 152.2819 -132.3182 74.9443 166.6591 -0.6035 -24.6091 -31.0545 -64.8236 18.2041 -143.8477 26.8802 -2.5671 -94.1284 0.1881 -0.6068 -0.3226 0.6853 5.6989 9.0442 -138.7442 1.3948 102.7348 -2.9861 0.0601 63.7915 -0.0802 0.4977 0.6712 -49.6698 11.4808 102.0129 -2.5945 29.9346 -7.4854 -7.5317 -4.0708 -1.1073 5.9394 -15.1446 5.8734 -17.2259 -5.1465 114.2733 0.8155 47.1710 -6.0061 4.0897 -1.7040 0.2704 2.4241 -6.4158 -12.1435 
0.0000 93.1000 0.0000 63.8044 9.9268 -6.2153 -71.0201 0.0278 87.9922 111.9609 65.1320 -20.1904 -10.0937 18.1518 -2.2148 -140.1547 38.1763 152.2948 -139.2980 78.7542 172.1226 -4.2021 -24.4678 -30.3047 -63.9055 15.9915 -145.7078 25.0917 -3.6676 -95.0646 -0.9492 0.2342 0.0450 -1.5455 6.2935 11.7185 -140.8692 1.9280 102.6221 -0.0279 -0.8328 66.9096 0.0758 -0.3342 -0.8551 -48.7408 11.6817 98.9310 -2.0017 25.1992 -6.9460 -8.0587 -2.6078 1.1056 5.6286 -15.2415 6.5163 -21.4819 -7.2045 112.1084 1.7675 43.7715 0.0329 5.4639 -2.0741 -0.9475 0.6858 -11.5338 -20.6234 
0.0000 93.1000 0.0000 65.0012 13.1698 -2.9623 -71.0063 -0.6159 88.0021 112.0396 66.2976 -20.8730 -9.7389 18.9540 -1.9802 -135.0965 39.9793 152.1362 -161.3634 82.1614 -165.9697 -1.3610 -23.1152 -28.9774 -63.8940 15.7671 -148.7761 24.1181 -2.8437 -95.4213 -0.1199 -0.7826 0.0274 -0.3626 6.1103 14.3648 -142.3159 2.2895 102.0943 3.2855 -2.2984 68.9071 0.5394 0.6866 1.0249 -50.1700 12.9073 98.0417 -1.4003 24.1651 -3.2326 -6.9760 -2.3374 0.0524 4.5420 -13.1918 4.0602 -25.0521 -9.0301 106.8965 0.7698 41.1796 0.0201 7.0259 -6.6623 -0.3092 2.5020 -4.1931 -14.5084 
0.0000 93.1000 0.0000 65.8932 14.9071 0.0329 -70.9957 2.7786 87.9976 111.0022 66.9152 -22.8562 -7.7410 18.9533 0.2142 -132.2883 41.2612 152.3751 -174.9378 83.6501 -152.9274 -0.9392 -21.8477 -27.7362 -63.8697 16.9359 -151.6116 22.5734 -2.1681 -94.1226 0.0713 2.0882 -1.2987 0.1165 6.0656 17.2025 -143.9770 2.1138 100.1453 2.8817 -1.6849 71.7525 -1.3912 -2.2729 -1.5426 -49.6113 13.7409 97.8445 -1.2427 22.3368 -5.9017 -6.6907 -2.2483 -1.5338 5.4976 -11.7168 2.5495 -27.8912 -9.9806 102.0482 1.6400 39.3411 2.9845 8.8957 -7.9714 0.7318 1.1490 -3.3452 -15.7086 
0.0000 93.1000 0.0000 66.9625 16.8924 2.2701 -71.0107 -0.4689 87.9934 107.0651 67.6768 -22.9861 -8.2241 18.1878 2.5668 -132.1736 41.3856 152.5500 172.0414 83.7069 -142.6881 -1.1775 -21.7750 -28.0693 -65.1944 16.0505 -153.7278 21.2170 -1.9561 -92.9429 0.3292 -0.5428 0.3257 -0.6457 5.6347 20.9585 -146.0200 4.5365 98.8024 3.6607 -2.1458 74.0690 0.6746 0.5553 0.4049 -49.3160 15.0657 96.8250 -0.0295 23.2853 -7.7383 -7.1913 -2.7369 -0.1512 4.0843 -10.2177 0.7714 -29.7432 -12.3528 96.2314 2.0766 39.1204 5.8786 6.2305 -9.5634 -0.1543 3.0396 -4.8104 -18.9896 
0.0000 93.1000 0.0000 66.9167 18.8945 4.1366 -71.0145 -0.4323 87.9943 104.9084 68.0600 -18.9608 -7.1138 17.8049 3.1948 -131.2881 41.4807 154.4668 154.5604 83.4753 -125.4156 -1.2664 -21.1490 -27.2078 -65.9224 16.9656 -154.7086 20.0613 -1.8601 -93.2607 -0.0985 -0.4954 0.4692 -1.0120 5.5247 23.8485 -145.9063 5.0008 98.1708 3.9682 -1.7173 74.8802 0.6443 0.6546 0.4388 -48.0873 15.8226 94.0531 -0.2340 26.1456 -8.9854 -6.8077 -3.9821 -0.1017 3.0602 -8.9731 0.6899 -32.1011 -14.9091 89.2739 1.8912 38.0992 7.7759 5.2701 -8.0911 -0.4198 2.4439 -4.0655 -19.3160 
0.0000 93.1000 0.0000 67.8343 18.7257 5.2974 -71.0144 -0.0551 87.9939 100.9439 68.9044 -17.2579 -5.6347 18.2106 4.0260 -131.3223 41.7025 156.2475 146.5846 83.2223 -118.0688 -0.9842 -20.8361 -27.9161 -66.8788 18.0471 -153.7611 18.7884 -1.9851 -94.2008 -0.1627 -0.1408 0.2842 -0.9185 5.5496 25.3647 -145.9481 4.1181 97.8291 4.4916 -2.1167 73.8832 0.1763 0.3316 0.1956 -47.3204 16.9472 92.1329 -0.9720 28.0815 -8.8600 -6.4897 -6.1404 -0.5868 2.2993 -7.6994 0.6259 -32.7754 -15.9447 85.1715 1.8620 37.9380 9.7096 4.5230 -8.3464 -0.1963 2.5772 -1.9499 -20.1237 
0.0000 93.1000 0.0000 68.9858 18.0544 4.0801 -71.0169 -0.1528 87.9924 99.9957 69.9727 -16.8696 -5.1118 18.8526 4.3736 -129.2087 41.2750 155.1605 151.3106 82.8509 -121.8341 -1.4178 -20.4938 -27.8256 -66.9351 18.8900 -153.7482 18.0821 -2.6001 -94.1550 -0.2793 -0.1390 0.3337 -1.2319 5.4680 26.3031 -144.9512 4.0611 98.0723 5.8976 -2.2070 72.7987 0.0099 0.2668 0.1500 -47.7661 17.0166 91.7810 -1.9609 30.2389 -8.9667 -5.9860 -8.3321 -0.5549 1.0408 -5.1913 1.3808 -32.8320 -16.8953 83.6411 1.8661 38.1718 9.7267 3.2914 -7.7412 -0.3762 2.4293 -0.8173 -20.2396 
0.0000 93.1000 0.0000 69.9034 16.7778 3.9694 -71.0151 -0.1491 87.9919 100.0066 70.9486 -16.8551 -4.2178 19.5966 4.0191 -128.3014 41.1585 153.3054 155.5409 82.8493 -125.8028 -1.2566 -19.9744 -27.2333 -68.0627 18.9790 -153.8878 18.9657 -2.2033 -94.2328 -0.1371 -0.0863 0.2319 -1.2981 5.5232 27.7204 -144.0889 3.8614 98.9227 5.9334 -2.6048 71.8237 -0.1204 0.1388 0.0242 -47.1041 18.0115 91.9386 -3.0490 33.4249 -6.9861 -5.7907 -10.8927 -0.8591 -0.2327 -1.1342 0.6359 -33.9324 -17.0255 82.9646 1.9465 38.0739 8.7848 2.9988 -6.1532 -0.2116 1.8857 0.9816 -16.0943 
0.0000 93.1000 0.0000 70.0612 16.0243 4.9603 -71.0160 -0.2354 87.9926 100.8978 71.1375 -17.3967 -4.1232 20.0240 3.4452 -129.2424 41.2763 155.1555 150.4449 82.7877 -121.9525 -1.2662 -19.7674 -26.8237 -67.9200 19.1123 -152.8325 18.7495 -2.1868 -94.2035 0.1154 -0.1436 0.1949 -1.3608 5.7179 28.1165 -143.7662 3.6906 99.0548 6.8320 -2.9013 70.9336 -0.0596 0.1811 0.0622 -46.2332 19.1564 92.0371 -3.3512 37.2109 -7.1778 -6.1877 -12.2438 -0.9289 -0.2927 -0.2776 0.1689 -33.8733 -17.0805 83.2169 1.8440 38.0348 9.7467 3.3894 -4.9210 -0.3486 1.9684 -0.1155 -13.9647 
0.0000 93.1000 0.0000 70.8558 15.8301 4.8966 -71.0101 0.0887 87.9915 102.1036 71.0224 -17.5331 -3.6771 20.3781 3.1840 -129.1965 41.6473 157.0329 144.5558 82.3322 -116.0829 -0.8473 -19.9161 -27.1611 -67.8803 19.9046 -152.8393 19.1272 -1.9377 -94.1977 0.1026 0.0289 -0.0013 -1.0309 5.9885 27.8736 -144.0145 3.2629 99.0379 7.1938 -3.0898 69.9554 -0.1589 0.0582 -0.0290 -45.0380 19.6532 92.9634 -3.0736 40.1679 -9.7656 -6.1637 -12.8412 -1.4302 0.0932 -3.0615 3.1506 -33.5109 -17.3487 83.0194 2.0001 38.1522 8.8398 3.7418 -5.0277 -0.1944 1.6299 0.3292 -11.5302 
0.0000 93.1000 0.0000 69.8868 15.7993 3.8447 -71.0130 -0.1851 87.9913 99.9136 70.9046 -16.3399 -3.4778 20.7091 2.9520 -129.2355 41.6171 157.1910 144.5166 82.1120 -116.1324 -0.7580 -19.8236 -27.6854 -67.8110 19.1567 -152.9259 19.8785 -1.9833 -93.3080 -0.1798 -0.2027 0.0400 -1.0299 5.8764 28.1347 -144.0180 2.8779 98.9421 6.0255 -3.1898 68.8835 0.1477 0.2274 0.1138 -45.1467 19.3547 93.8784 -3.9608 41.2789 -11.8171 -7.0365 -12.2954 -1.4602 1.8331 -7.9710 4.9653 -32.9886 -18.7709 82.0426 1.8020 38.9220 9.9361 4.5451 -4.6332 -0.3570 0.9149 -1.2765 -9.5581 
0.0000 93.1000 0.0000 70.9580 15.8249 3.8703 -71.0157 -0.1310 87.9929 98.9180 70.9237 -14.9711 -3.2218 20.3202 3.1362 -128.2478 41.3722 156.2933 146.8623 82.0265 -118.2660 -0.9850 -19.9220 -27.2914 -67.8043 19.9178 -152.8421 20.0068 -1.7942 -93.2764 -0.3039 -0.1450 -0.0048 -1.1544 5.8255 27.8553 -144.8649 1.8476 98.9561 6.7630 -3.0550 68.9379 0.1786 0.0712 -0.1423 -44.3254 19.9464 95.6561 -4.1279 43.2187 -13.0629 -6.7222 -12.3655 -1.5240 2.5296 -9.1741 5.7651 -33.7989 -19.8632 81.0678 2.8314 38.9490 11.8231 4.5654 -4.3916 -0.3280 0.6794 -2.7571 -8.6624 
0.0000 93.1000 0.0000 70.9881 14.8803 3.8384 -71.0176 -0.2664 87.9934 98.9254 70.9345 -14.8592 -2.9616 20.1024 3.0609 -128.2430 40.8682 156.3481 146.8998 81.9257 -118.2666 -0.7865 -20.1214 -27.0576 -67.9837 20.1332 -152.8769 19.9784 -1.3525 -92.2894 -0.0390 -0.2324 0.0883 -0.9731 5.8227 27.3886 -145.1353 1.1545 98.9551 7.0831 -2.8352 68.9762 0.1370 0.2143 0.0507 -43.9672 21.0653 96.1964 -3.9774 44.2991 -13.9456 -5.9964 -13.4508 -1.7852 2.0453 -7.9224 6.2844 -33.9726 -20.0884 81.0796 2.7332 39.0748 11.7443 4.7045 -4.9280 -0.4278 1.6225 -1.0836 -10.2604 
0.0000 93.1000 0.0000 70.9570 14.7794 3.8809 -71.0184 0.2258 87.9954 96.9664 71.0073 -13.1690 -2.9249 19.9124 3.9100 -128.2215 41.1006 156.3323 148.8840 82.0784 -119.2523 -0.9159 -20.1283 -26.8455 -67.7908 20.9210 -152.7526 20.2560 -1.4077 -92.2282 0.1067 0.2298 -0.1010 -0.9868 6.0924 27.7490 -144.8890 1.4701 98.9762 7.0094 -2.7252 68.9542 -0.1385 -0.1668 -0.2240 -43.3010 20.7209 95.9276 -4.0465 45.2739 -13.9456 -5.9136 -13.9703 -1.9948 2.3307 -7.8829 6.9946 -33.0232 -20.1735 82.0019 2.8206 39.0041 11.9559 4.9055 -5.6660 -0.2037 1.7174 -0.8722 -12.9003 
0.0000 93.1000 0.0000 70.9309 15.6804 3.8472 -71.0187 0.2637 87.9963 96.8787 71.0685 -12.8702 -3.0368 20.0803 4.0356 -127.2315 40.9461 156.4742 148.9620 82.0643 -119.3475 -0.9406 -19.9995 -26.9827 -66.8546 20.8831 -152.6908 21.0005 -1.8795 -93.2432 0.0504 0.2900 -0.0761 -0.9165 5.9727 27.2162 -144.9979 0.9054 98.9214 7.1264 -2.7425 68.9229 -0.2380 -0.2064 -0.0888 -43.0724 20.0735 95.9268 -4.8008 45.2474 -14.8384 -5.6501 -14.3830 -2.1165 2.5961 -8.9629 8.9087 -33.8043 -20.1981 81.8501 2.8555 38.9828 10.9470 5.1360 -6.2467 -0.2058 1.1722 0.1460 -12.4261 
0.0000 93.1000 0.0000 70.9186 15.8742 4.8578 -71.0167 0.3225 87.9955 95.9692 70.2203 -12.0230 -2.6456 19.8138 3.9350 -127.2990 40.3482 155.4862 152.9432 81.8330 -123.3713 -1.1794 -19.9940 -26.7902 -66.8703 20.1232 -152.7145 20.7913 -1.1678 -92.3192 0.0421 0.3570 -0.1307 -1.0519 6.0048 27.9510 -144.9932 1.0950 99.0570 6.9533 -2.9262 68.8609 -0.2870 -0.3172 -0.3101 -43.1839 21.0619 96.1197 -5.0343 46.2768 -14.9914 -5.7598 -14.7356 -2.0631 3.0340 -9.9785 8.0117 -33.8178 -19.7498 82.1577 1.8318 38.9532 9.9436 5.8873 -5.9413 -0.3439 0.8124 -1.0223 -8.6572 
0.0000 93.1000 0.0000 70.9181 15.9509 4.8344 -71.0165 0.0162 87.9976 95.8710 69.9479 -10.8411 -2.5392 19.1218 3.9926 -127.2335 40.3262 154.4318 154.8967 81.9689 -126.1701 -1.1218 -20.0042 -26.1026 -66.9208 20.8473 -153.6783 20.2638 -1.0259 -92.2680 0.0572 0.0293 0.0665 -1.0803 6.2251 28.1292 -145.1371 0.7624 99.0206 7.0830 -2.9793 69.0133 -0.0712 0.0027 -0.0391 -43.2330 21.1009 96.0982 -5.3543 47.1584 -14.1541 -5.9448 -15.0564 -1.8608 2.8967 -9.0151 6.0168 -33.9564 -20.2752 81.0564 1.8340 40.0411 9.8299 6.3714 -4.8907 -0.7262 0.3341 -1.8638 -4.3668 
